<?xml version="1.0" encoding="UTF-8" standalone="no"?>
<svg
   xmlns:dc="http://purl.org/dc/elements/1.1/"
   xmlns:cc="http://creativecommons.org/ns#"
   xmlns:rdf="http://www.w3.org/1999/02/22-rdf-syntax-ns#"
   xmlns:svg="http://www.w3.org/2000/svg"
   xmlns="http://www.w3.org/2000/svg"
   xmlns:sodipodi="http://sodipodi.sourceforge.net/DTD/sodipodi-0.dtd"
   xmlns:inkscape="http://www.inkscape.org/namespaces/inkscape"
   version="1.1"
   x="0px"
   y="0px"
   viewBox="0 0 68.443382 90"
   enable-background="new 0 0 100 100"
   xml:space="preserve"
   id="svg88"
   sodipodi:docname="playing-card-only-white.svg"
   width="68.443382"
   height="90"
   inkscape:version="1.0.1 (0767f8302a, 2020-10-17)"><metadata
     id="metadata94"><rdf:RDF><cc:Work
         rdf:about=""><dc:format>image/svg+xml</dc:format><dc:type
           rdf:resource="http://purl.org/dc/dcmitype/StillImage" /><dc:title></dc:title></cc:Work></rdf:RDF></metadata><defs
     id="defs92" /><sodipodi:namedview
     pagecolor="#ffffff"
     bordercolor="#666666"
     borderopacity="1"
     objecttolerance="10"
     gridtolerance="10"
     guidetolerance="10"
     inkscape:pageopacity="0"
     inkscape:pageshadow="2"
     inkscape:window-width="1848"
     inkscape:window-height="1016"
     id="namedview90"
     showgrid="false"
     inkscape:zoom="6.6"
     inkscape:cx="5.0249245"
     inkscape:cy="51.449582"
     inkscape:window-x="72"
     inkscape:window-y="27"
     inkscape:window-maximized="1"
     inkscape:current-layer="g82" /><g
     id="g82"
     transform="translate(-15.777783,-5)"><path
       fill="none"
       d="m 49.988,56.182 c -0.72,3.651 -2.578,7.348 -4.048,9.86 -0.479,0.819 -0.454,1.302 -0.373,1.443 0.076,0.132 0.457,0.385 1.36,0.391 l 5.891,0.047 c 0.945,0.05 1.286,-0.245 1.364,-0.377 0.083,-0.14 0.115,-0.623 -0.351,-1.446 -1.104,-1.947 -3.074,-6.283 -3.843,-9.918 z"
       id="path70" /><path
       fill="none"
       d="m 50.122,32.659 c -4.937,4.075 -14.475,13.191 -14.521,19.26 -0.022,3.132 1.933,4.842 3.771,5.398 2.079,0.633 5.064,0.151 7.187,-3.083 0.501,-0.766 1.469,-1.076 2.324,-0.742 0.553,0.216 0.959,0.662 1.136,1.197 0.193,-0.472 0.57,-0.863 1.071,-1.063 0.235,-0.095 0.48,-0.14 0.722,-0.14 0.64,0 1.259,0.318 1.625,0.882 2.082,3.204 5.04,3.696 7.11,3.091 1.833,-0.536 3.798,-2.22 3.82,-5.336 0.043,-6.07 -9.366,-15.32 -14.245,-19.464 z"
       id="path72" /><path
       fill="none"
       d="M 76.788,9.249 23.793,8.875 c -0.008,0 -0.017,0 -0.025,0 -1.965,0 -3.571,1.591 -3.586,3.557 l -0.529,74.712 c -0.007,0.956 0.359,1.857 1.03,2.537 0.672,0.681 1.571,1.06 2.53,1.066 l 52.993,0.377 c 0.014,-0.003 0.021,0 0.032,0 1.958,0 3.561,-1.589 3.578,-3.559 L 80.345,12.857 C 80.359,10.884 78.763,9.264 76.788,9.249 Z m -15.152,51.93 c -2.021,0.592 -4.09,0.493 -5.991,-0.207 0.55,1.288 1.112,2.432 1.557,3.218 1.09,1.925 1.204,3.813 0.321,5.318 -0.503,0.857 -1.779,2.29 -4.678,2.29 -0.018,0 -0.037,0 -0.055,0 l -5.892,-0.047 c -2.937,-0.019 -4.205,-1.48 -4.7,-2.349 -0.863,-1.516 -0.722,-3.405 0.396,-5.317 0.648,-1.106 1.219,-2.187 1.71,-3.231 -1.926,0.704 -4.017,0.788 -6.056,0.173 -3.993,-1.21 -6.553,-4.795 -6.523,-9.137 0.073,-9.673 15.471,-21.898 17.226,-23.26 0.707,-0.549 1.699,-0.54 2.397,0.018 1.736,1.386 16.962,13.828 16.892,23.501 -0.028,4.318 -2.621,7.863 -6.604,9.03 z"
       id="path74" /><path
       d="M 76.816,5.373 23.821,5 c -0.018,0 -0.036,0 -0.054,0 -4.088,0 -7.43,3.31 -7.46,7.405 l -0.529,74.712 c -0.015,1.992 0.748,3.869 2.147,5.287 1.399,1.419 3.269,2.206 5.262,2.219 L 76.177,95 c 0.021,0 0.041,0 0.062,0 4.078,0 7.416,-3.306 7.453,-7.402 L 84.221,12.885 C 84.248,8.773 80.926,5.404 76.816,5.373 Z m 3.001,82.193 c -0.018,1.969 -1.62,3.559 -3.578,3.559 -0.011,0 -0.018,-0.003 -0.032,0 L 23.214,90.748 c -0.959,-0.006 -1.858,-0.385 -2.53,-1.066 -0.671,-0.68 -1.037,-1.581 -1.03,-2.537 l 0.529,-74.712 c 0.015,-1.967 1.62,-3.557 3.586,-3.557 0.008,0 0.017,0 0.025,0 l 52.995,0.373 c 1.975,0.015 3.571,1.635 3.559,3.609 z"
       id="path76"
       style="fill:#ffffff;fill-opacity:1" /><path
       d="m 51.349,28.648 c -0.698,-0.558 -1.69,-0.566 -2.397,-0.018 -1.755,1.362 -17.153,13.587 -17.226,23.26 -0.03,4.342 2.53,7.927 6.523,9.137 2.039,0.616 4.13,0.531 6.056,-0.173 -0.491,1.043 -1.062,2.124 -1.71,3.231 -1.118,1.912 -1.26,3.801 -0.396,5.317 0.494,0.869 1.763,2.33 4.7,2.349 l 5.892,0.047 c 0.018,0 0.037,0 0.055,0 2.899,0 4.175,-1.433 4.678,-2.29 0.883,-1.505 0.769,-3.393 -0.321,-5.318 -0.445,-0.786 -1.007,-1.93 -1.557,-3.218 1.901,0.7 3.97,0.799 5.991,0.207 3.983,-1.167 6.576,-4.712 6.606,-9.03 C 68.311,42.476 53.085,30.034 51.349,28.648 Z m 2.832,38.897 c -0.078,0.132 -0.418,0.428 -1.364,0.377 l -5.891,-0.047 c -0.903,-0.006 -1.284,-0.259 -1.36,-0.391 -0.08,-0.141 -0.105,-0.624 0.373,-1.443 1.47,-2.512 3.328,-6.209 4.048,-9.86 0.769,3.636 2.739,7.971 3.842,9.918 0.467,0.823 0.434,1.306 0.352,1.446 z m 6.365,-10.087 c -2.07,0.606 -5.028,0.114 -7.11,-3.091 -0.366,-0.564 -0.985,-0.882 -1.625,-0.882 -0.242,0 -0.486,0.045 -0.722,0.14 -0.501,0.201 -0.878,0.592 -1.071,1.063 -0.177,-0.535 -0.583,-0.981 -1.136,-1.197 -0.855,-0.334 -1.822,-0.024 -2.324,0.742 -2.124,3.234 -5.108,3.716 -7.187,3.083 C 37.534,56.76 35.578,55.05 35.6,51.918 35.646,45.849 45.184,36.732 50.121,32.658 55,36.802 64.408,46.052 64.365,52.121 c -0.02,3.117 -1.986,4.801 -3.819,5.337 z"
       id="path78"
       style="fill:#ffffff;fill-opacity:1" /></g></svg>
